<svg xmlns="http://www.w3.org/2000/svg" xmlns:xlink="http://www.w3.org/1999/xlink" version="1.1" id="Layer_1" x="0px" y="0px" viewBox="0 0 253 106" style="enable-background:new 0 0 253 106;" xml:space="preserve">
<style type="text/css">
	.st0{fill:#0000FF;}
</style>
<g>
	<path class="st0" d="M43.1,69.1c-12.5,6.2-23.6,7.3-27.7,1.9c-3.3-4.3-1.5-11.7,3.9-19.9l-1.5-4.9c-7.7,10.2-10.4,20.4-5.9,26.2   C17,79,30,78,43.9,71v-2.3C43.6,68.9,43.3,69,43.1,69.1z"/>
	<path class="st0" d="M21.7,51.9L27,52c3.9-5.4,9.1-11,14.6-15.2c3.8-2.9,7.6-5.4,11.4-7.2l0.1-4.6c-4.5,2.3-9.2,5.3-13.9,8.8   C31.7,39.4,25.7,45.8,21.7,51.9z"/>
	<path class="st0" d="M10.5,73.1c-5.2-6.7-1.7-18.7,7.8-30.6l0.6,2l1.8,5.9c4-6,10-12.3,17.4-17.9c5-3.9,10.1-7,15-9.4l0,0   c0,0-18-1.7-40.8,0l1.7,5c0.1,0.3,0.2,0.7,0.4,1.2l-2.7,3.2c0,0-22.8,27.6-1,41l0,0C10.7,73.3,10.6,73.2,10.5,73.1z"/>
	<path class="st0" d="M16,63.2c-0.6,2.8-0.2,5.1,1.1,6.8c3.7,4.9,14.5,3.3,26.8-3.1l0.1-5.7C31.4,67.3,20.4,68.4,16,63.2z"/>
	<g>
		<path class="st0" d="M82.9,38.3c-1.4-2.2-4.3-2.9-6.6-1.6c-2.3,1.4-3,4.3-1.6,6.6s4.3,2.9,6.6,1.6C83.6,43.5,84.3,40.5,82.9,38.3z    "/>
	</g>
	<path class="st0" d="M75.2,45.7c-0.7-0.4-1.3-0.9-1.7-1.6c-0.2-0.3-0.3-0.6-0.4-0.9l0,0c0,0-0.3,0.4-3.1,2.5c0.3,0.6,0.4,1.3,0.6,2   c0.1,0.6,0.2,1.2,0.2,1.8c0.4-0.3,0.7-0.6,1-0.8l0,0l0,0c2-1.6,2.8-2.4,3.2-2.7C75,45.8,75.1,45.8,75.2,45.7L75.2,45.7L75.2,45.7z"/>
	<g>
		<path class="st0" d="M55.2,38.7c4.7,0,8.3,1,10.8,3.1s3.7,5.1,3.7,9.1c0,1.8-0.4,3.4-1.2,4.8c-0.8,1.4-2,2.6-3.5,3.5    c2.2,0.7,3.9,1.9,5.2,3.7c1.3,1.8,1.9,4.1,1.9,6.6c0,2.1-0.4,4-1.2,5.8C70,77.2,69,78.8,67.6,80c-1.3,1.1-2.9,2-4.6,2.4    c-1.7,0.5-4.1,0.7-7.2,0.7H45.6V38.7H55.2z M51.9,77.1H57c3,0,5.2-0.6,6.6-1.7c1.4-1.1,2.1-2.8,2.1-5.1c0-2.5-0.7-4.4-2.2-5.7    c-1.5-1.3-3.6-2-6.5-2h-5.1C51.9,62.6,51.9,77.1,51.9,77.1z M52,57.3h2c3.3,0,5.7-0.5,7.1-1.5c1.4-1,2.1-2.7,2.1-5    c0-2.1-0.6-3.6-1.9-4.6c-1.3-1-3.2-1.5-5.9-1.5H52V57.3z"/>
		<path class="st0" d="M75.8,83.1V49.6h6v33.5H75.8z"/>
		<path class="st0" d="M114.4,83.1V79c-1.5,1.6-3.3,2.8-5.2,3.6c-1.9,0.8-3.9,1.2-6.1,1.2c-5,0-9.2-1.7-12.6-5    c-3.3-3.4-5-7.6-5-12.6c0-2.4,0.4-4.6,1.2-6.7c0.8-2.1,2-4,3.6-5.6c1.7-1.8,3.5-3.1,5.5-3.9c2-0.8,4.3-1.3,6.8-1.3    c2.3,0,4.4,0.4,6.3,1.2s3.7,2,5.3,3.7V38.7h6v44.4C120.2,83.1,114.4,83.1,114.4,83.1z M91.9,66.1c0,3.4,1.1,6.2,3.4,8.5    c2.2,2.3,5,3.4,8.2,3.4c3,0,5.6-1.2,7.8-3.5c2.3-2.3,3.4-5,3.4-8.1c0-3.3-1.1-6.1-3.4-8.5c-2.2-2.3-4.9-3.5-8-3.5    c-3.2,0-5.9,1.1-8.1,3.4C93,60.2,91.9,62.9,91.9,66.1z"/>
		<path class="st0" d="M157.7,71.7c-1.4,4-3.5,7.1-6.2,9.2c-2.8,2.1-6.1,3.1-10.1,3.1c-2.5,0-4.8-0.4-6.8-1.3s-3.9-2.2-5.5-3.9    c-1.6-1.6-2.8-3.6-3.7-5.7c-0.9-2.2-1.3-4.4-1.3-6.7c0-2.3,0.4-4.5,1.2-6.6c0.8-2,2-3.9,3.6-5.6c1.7-1.8,3.7-3.3,5.8-4.2    c2.2-1,4.5-1.4,6.9-1.4c3.8,0,7.2,1.1,10,3.2c2.8,2.1,4.9,5.1,6.2,8.9h-6.6c-1.1-2.1-2.4-3.6-4.1-4.6c-1.7-1-3.7-1.5-6-1.5    c-3,0-5.5,1.1-7.6,3.4c-2.1,2.3-3.1,5-3.1,8.4s1.1,6.1,3.2,8.4c2.1,2.2,4.7,3.4,7.9,3.4c2.1,0,4-0.6,5.7-1.7s3-2.7,4-4.7h6.5    L157.7,71.7L157.7,71.7z"/>
		<path class="st0" d="M160.2,66.4c0-2.4,0.4-4.6,1.2-6.7c0.8-2.1,2-3.9,3.6-5.6c1.7-1.8,3.6-3.2,5.7-4.2c2.1-1,4.3-1.5,6.6-1.5    c2.4,0,4.7,0.4,6.8,1.3c2.1,0.9,4,2.2,5.7,3.9c1.6,1.7,2.9,3.6,3.8,5.7c0.9,2.1,1.3,4.3,1.3,6.6c0,2.3-0.4,4.5-1.2,6.7    s-2,4.1-3.5,5.7c-1.7,1.9-3.6,3.3-5.7,4.3c-2.1,1-4.4,1.4-6.8,1.4c-2.5,0-4.7-0.4-6.8-1.3s-3.9-2.2-5.6-3.9    c-1.6-1.6-2.8-3.6-3.7-5.7C160.6,70.9,160.2,68.7,160.2,66.4z M166.4,66.3c0,3.4,1.1,6.1,3.2,8.4c2.1,2.2,4.8,3.4,7.9,3.4    c3.1,0,5.7-1.1,7.8-3.4c2.1-2.2,3.2-5.1,3.2-8.4c0-3.4-1.1-6.2-3.2-8.4c-2.1-2.2-4.7-3.3-7.9-3.3c-3.1,0-5.8,1.1-7.9,3.4    C167.5,60.1,166.4,63,166.4,66.3z"/>
		<path class="st0" d="M218.9,66.2c0-4.1-0.6-7.1-1.7-8.9c-1.2-1.8-3-2.8-5.5-2.8c-2.6,0-4.5,0.9-5.7,2.8c-1.2,1.9-1.9,4.7-1.9,8.6    v17.2h-5.7V49.6h5.4v3.9c1.1-1.5,2.4-2.6,3.8-3.4c1.4-0.7,3-1.1,4.8-1.1c2.4,0,4.5,0.5,6.1,1.4s2.9,2.4,4,4.4c1-2,2.4-3.4,4.1-4.4    c1.7-1,3.8-1.4,6.3-1.4c3.8,0,6.8,1.2,9.1,3.7s3.4,5.8,3.4,9.9v20.5h-6.1V63.6c0-2.9-0.6-5.1-1.9-6.7c-1.3-1.6-3-2.4-5.2-2.4    c-2.6,0-4.5,0.8-5.6,2.5s-1.7,4.5-1.7,8.5V83H219V66.2H218.9z"/>
	</g>
	<path class="st0" d="M70.7,50.5c0,0.3,0,0.6,0,1c1.6-1.5,2.3-2.3,3.1-3.6C72.3,49.2,73.1,48.5,70.7,50.5z"/>
</g>
</svg>