<svg xmlns:mydata="http://www.w3.org/2000/svg" xmlns="http://www.w3.org/2000/svg" xmlns:xlink="http://www.w3.org/1999/xlink" mydata:contrastcolor="5cc5ef" mydata:template="Default" mydata:presentation="2.5" mydata:layouttype="undefined" mydata:specialfontid="undefined" mydata:id1="688" mydata:id2="171" mydata:companyname="Tech Max" mydata:companytagline="" version="1.1" width="550" height="470" style=""><rect id="backgroundrect" width="100%" height="100%" x="0" y="0" fill="none" stroke="none"/><g class="currentLayer" style=""><title>Layer 1</title><g fill="#10069f" fill-rule="none" stroke="none" stroke-width="1" stroke-linecap="butt" stroke-linejoin="miter" stroke-miterlimit="10" stroke-dasharray="" stroke-dashoffset="0" font-family="none" font-weight="none" font-size="none" text-anchor="none" style="mix-blend-mode: normal" id="svg_1" class="selected"><g data-paper-data="{&quot;isGlobalGroup&quot;:true}" id="svg_2"><g data-paper-data="{&quot;stacked&quot;:true,&quot;isPrimaryText&quot;:true}" id="svg_3"><path d="M324.68361101514984,51.72120120756831 h-42.27677779742793 c-4.66891018411457,0 -8.455071238652614,2.499321272022457 -8.455071238652614,5.583518846691224 c0,3.0841887181400085 3.786147643177999,5.583518846691224 8.455071238652614,5.583518846691224 h12.683324365741374 v50.253556060846456 c0,3.0841887181400085 3.786147643177999,5.583518846691224 8.455071238652614,5.583518846691224 c4.6703586109995205,0 8.456519665537563,-2.499321272022457 8.456519665537563,-5.583518846691224 v-50.253556060846456 h12.681875938856425 c4.6703586109995205,0 8.456519665537563,-2.499321272022457 8.456519665537563,-5.583518846691224 c0,-3.0841887181400085 -3.786147643177999,-5.583518846691224 -8.456519665537563,-5.583518846691224 z" data-paper-data="{&quot;glyphName&quot;:&quot;T&quot;,&quot;glyphIndex&quot;:0,&quot;firstGlyphOfWord&quot;:true,&quot;word&quot;:1,&quot;line&quot;:1,&quot;firstGlyphOfFirstLine&quot;:true}" fill-rule="nonzero" id="svg_4"/><path d="M389.6222344500177,107.558276115106 h-25.365200304597796 v-16.75150418865077 h16.91012906594518 c4.6703586109995205,0 8.455071238652614,-2.499321272022457 8.455071238652614,-5.583518846691224 c0,-3.0841887181400085 -3.784699216293051,-5.583518846691224 -8.455071238652614,-5.583518846691224 h-16.91012906594518 v-16.75150418865077 h25.365200304597796 c4.6703586109995205,0 8.456519665537563,-2.499321272022457 8.456519665537563,-5.583518846691224 c0,-3.0841887181400085 -3.786147643177999,-5.583518846691224 -8.456519665537563,-5.583518846691224 h-42.27677779742793 c-4.66891018411457,0 -8.455071238652614,2.499321272022457 -8.455071238652614,5.583518846691224 c0,3.0841887181400085 3.786147643177999,5.583518846691224 8.455071238652614,5.583518846691224 v49.13838624228908 c0,3.69489951517326 4.55295556515833,6.700601675460308 10.148107919478049,6.700601675460308 h32.12866987794988 c4.6703586109995205,0 8.456519665537563,-2.499321272022457 8.456519665537563,-5.583518846691224 c0,-3.0841887181400085 -3.786147643177999,-5.5854318569029395 -8.456519665537563,-5.5854318569029395 z" data-paper-data="{&quot;glyphName&quot;:&quot;E&quot;,&quot;glyphIndex&quot;:1,&quot;word&quot;:1,&quot;line&quot;:1}" fill-rule="nonzero" id="svg_5"/><path d="M460.06957402370983,96.38943168985693 c-4.669889213397915,0 -8.455393111293713,2.499852663747934 -8.455393111293713,5.583731403381414 c0,3.07882166171269 -3.7931751958420143,5.583731403381414 -8.455393111293713,5.583731403381414 h-8.455393111293713 c-4.662231326811747,0 -8.455393111293713,-2.5049185981974826 -8.455393111293713,-5.583731403381414 v-33.50239727681725 c0,-3.07882166171269 3.7931751958420143,-5.583731403381414 8.455393111293713,-5.583731403381414 h8.455393111293713 c4.662231326811747,0 8.455393111293713,2.5049185981974826 8.455393111293713,5.583731403381414 c0,3.08387873963348 3.7855038978957993,5.583731403381414 8.455393111293713,5.583731403381414 c4.669889213397915,0 8.455393111293713,-2.499852663747934 8.455393111293713,-5.583731403381414 c0,-9.238138869073323 -11.379512176165996,-16.75288580713701 -25.36619274524119,-16.75288580713701 h-8.455393111293713 c-13.986680569075192,0 -25.366179333881146,7.5147469380636895 -25.366179333881146,16.751203066673 v33.50239727681725 c0,9.236456128609312 11.379512176165996,16.75119421014424 25.36619274524119,16.75119421014424 h8.455393111293713 c13.986680569075192,0 25.366179333881146,-7.5147469380636895 25.366179333881146,-16.751203066673 c0,-3.0821959991694694 -3.7855038978957993,-5.582048662917403 -8.455393111293713,-5.582048662917403 zM536.1681388480733,51.71788000928409 c-4.669889213397915,0 -8.455393111293713,2.499852663747934 -8.455393111293713,5.583731403381414 v22.334934470054417 h-25.36619274524119 v-22.333242873061646 c0,-3.08387873963348 -3.7855038978957993,-5.583731403381414 -8.455393111293713,-5.583731403381414 c-4.669889213397915,0 -8.455393111293713,2.499852663747934 -8.455393111293713,5.583731403381414 v22.334934470054417 h-33.82158585653491 c-4.669889213397915,0 -8.455393111293713,2.499852663747934 -8.455393111293713,5.583731403381414 c0,3.08387873963348 3.7855038978957993,5.583731403381414 8.455393111293713,5.583731403381414 h33.82158585653491 v22.334934470054417 c0,3.08387873963348 3.7855038978957993,5.583731403381414 8.455393111293713,5.583731403381414 c4.669889213397915,0 8.455393111293713,-2.499852663747934 8.455393111293713,-5.583731403381414 v-22.334934470054417 h25.36619274524119 v22.334934470054417 c0,3.08387873963348 3.7855038978957993,5.583731403381414 8.455393111293713,5.583731403381414 c4.669889213397915,0 8.455393111293713,-2.499852663747934 8.455393111293713,-5.583731403381414 v-55.837331746871655 c0,-3.08387873963348 -3.7855038978957993,-5.585423000374183 -8.455393111293713,-5.585423000374183 z" data-paper-data="{&quot;glyphName&quot;:&quot;&quot;,&quot;glyphIndex&quot;:2,&quot;lastGlyphOfWord&quot;:true,&quot;word&quot;:1,&quot;line&quot;:1,&quot;lastGlyphOfFirstLine&quot;:true}" fill-rule="nonzero" id="svg_6"/><path d="M363.4116490649311,138.3027060540536 c-0.013424771405875044,-0.2722851201344378 -0.06328820805626813,-0.5357048549821666 -0.12082294265287542,-0.8016575570546692 c-0.051781261136946644,-0.22542522647612045 -0.09780904881423257,-0.44705100211507975 -0.1802755017360364,-0.6636196998332494 c-0.08821992638146468,-0.23682357898760287 -0.20328939557467934,-0.46224880546372304 -0.32409892686750935,-0.6902158556933757 c-0.12274076713942916,-0.2266917100885073 -0.23971464945915152,-0.4533834201770146 -0.3931406083834379,-0.6699521178951842 c-0.14767248546462566,-0.21149390673986393 -0.32409892686750935,-0.4077988666598422 -0.5005387796304378,-0.6116938717253847 c-0.18219332622258988,-0.2051614886779292 -0.36053759211202696,-0.41032297735585865 -0.5714982856329205,-0.6053614536634497 c-0.21287851800744723,-0.19376313616644666 -0.4525931674665987,-0.3748702927377815 -0.6923078169257499,-0.5559685927803576 c-0.2301255270263836,-0.17096643114348137 -0.4564288164397061,-0.34320820242810757 -0.7095682373047318,-0.5015097974477185 c-0.26848201675745526,-0.16590049669393345 -0.5561556897404919,-0.3128125957308206 -0.8495694248231436,-0.46224880546372304 c-0.28766026162299096,-0.1456367588957422 -0.5714982856329205,-0.29128237432024234 -0.8783367921214477,-0.4179218790301799 c-0.29149591059609814,-0.12031594317676082 -0.6002656529312246,-0.2241587428637334 -0.9109398083928586,-0.32674391546707704 c-0.3586197676254735,-0.12031594317676082 -0.7191573597375003,-0.2317576445380552 -1.0988731967150622,-0.32547743185469 c-0.12849424059908987,-0.03166209030967393 -0.2435502984322586,-0.08232143480515222 -0.37588018800445594,-0.11144170136129422 c-0.20137157108812567,-0.0455934100459305 -0.4046475553027593,-0.05445879533263917 -0.6079369508774385,-0.089920336479474 c-0.37588018800445594,-0.06712363145650879 -0.751760376008911,-0.12664836123869566 -1.1391609222927335,-0.16969994753109444 c-0.3969762573565451,-0.041793959208769625 -0.7843633922803218,-0.06459066423173486 -1.1775040006637596,-0.07852198396799137 c-0.20712504454778663,-0.0063324180619347935 -0.4027297308162057,-0.03926099198399567 -0.6117725998505454,-0.03926099198399567 c-0.13808336303185764,0 -0.26656419227090167,0.024063188635352197 -0.4027297308162057,0.026596155860126102 c-0.40848320427586665,0.008865385286708702 -0.8073772861189645,0.041793959208769625 -1.2101070169351695,0.07978846758037832 c-0.34135934724649125,0.03419505753444788 -0.6808008700064286,0.06459066423173486 -1.0106666816936438,0.1190494595643739 c-0.35670194313891984,0.05572527894502615 -0.694225641412304,0.13423840638425943 -1.0394340489919476,0.21149390673986393 c-0.347112820706152,0.08105495119276518 -0.6923078169257499,0.15956807863199846 -1.024091453099519,0.2621532512353422 c-0.31834545340784837,0.09498627092902182 -0.6156082488236527,0.21149390673986393 -0.9166932818525185,0.32801039907946417 c-0.31450980443474136,0.12031594317676082 -0.6290330202295281,0.24062302982476366 -0.9224467553121796,0.3812027107997161 c-0.29533155956920565,0.13931319736256526 -0.5619091632001529,0.29761479238217686 -0.8361446534172683,0.45591638740178825 c-0.2646463677843482,0.154502144182451 -0.5235526734690814,0.3039472104441115 -0.7671029719013394,0.4736471579752055 c-0.25122159637847286,0.1734993983682552 -0.4698535878455811,0.36347194022629875 -0.698061290385411,0.5559685927803576 c-0.22246764044021522,0.18996368532928573 -0.43916839606072394,0.3799362271873292 -0.6347864936891892,0.582564748640484 c-0.18219332622258988,0.19249665255405954 -0.33752369827338385,0.3951340305359724 -0.49286748168422434,0.6015620028262884 c-0.18411115070914355,0.23682357898760287 -0.3528662941658127,0.4749136415875924 -0.49478530617077715,0.7256685403114519 c-0.047945612163839454,0.08485440202992608 -0.12465859162598261,0.16083456224438547 -0.1687551434566691,0.24695544788669868 l-22.947963592657633,45.461527476195776 l-22.949881417144184,-45.461527476195776 c-0.042192138704178796,-0.08612088564231306 -0.11698729367976826,-0.16083456224438547 -0.16876855481671493,-0.24695544788669868 c-0.14191901200496485,-0.2507548987238593 -0.31450980443474136,-0.4888449613238495 -0.49286748168422434,-0.728201507536226 c-0.15534378341084,-0.2051614886779292 -0.31067415546163385,-0.40652352651869744 -0.49478530617077715,-0.599029035601515 c-0.1917824486553579,-0.2051614886779292 -0.4123188532489739,-0.3951340305359724 -0.634773082329143,-0.5850977158652578 c-0.22437205356672293,-0.19123016894167255 -0.4430040450338309,-0.3799362271873292 -0.694225641412304,-0.5534356255555845 c-0.23971464945915152,-0.16969994753109444 -0.5024566041169914,-0.3216779810175289 -0.7671029719013394,-0.4736471579752055 c-0.2742354902171159,-0.15830159501961155 -0.5408130938480631,-0.3153455629555944 -0.8342268289307148,-0.45591638740178825 c-0.29533155956920565,-0.1405796809749522 -0.6098413640039465,-0.25835380039818107 -0.9243645797987325,-0.3812027107997161 c-0.3010850330288662,-0.11651649233959999 -0.5983478284446708,-0.23302412815044204 -0.9166932818525185,-0.32801039907946417 c-0.3317702248137233,-0.10131868899095652 -0.6750473965467686,-0.18109830004257693 -1.024091453099519,-0.2621532512353422 c-0.34519499621959837,-0.07725550035560441 -0.6827186944929822,-0.1557686277948377 -1.0375162245053937,-0.21149390673986393 c-0.3317702248137233,-0.05445879533263917 -0.6712117475736606,-0.08485440202992608 -1.012584506180198,-0.1190494595643739 c-0.40081190632965247,-0.03926099198399567 -0.8016238126593049,-0.0709230822936696 -1.2101070169351695,-0.07978846758037832 c-0.13424771405875052,-0.0025329672247739136 -0.2627285432977946,-0.026596155860126102 -0.4027297308162057,-0.026596155860126102 c-0.2090294576742943,0 -0.4046475553027593,0.03292857392206087 -0.6117725998505454,0.03926099198399567 c-0.3912227838968843,0.013931319736256534 -0.7843633922803218,0.03672802475922178 -1.1775040006637596,0.07852198396799137 c-0.3873871349237773,0.04306044282115652 -0.7632673229282325,0.1025851726033435 -1.1391609222927335,0.16969994753109444 c-0.20327598421463342,0.035461541146834794 -0.4046475553027593,0.04685989365831749 -0.6079369508774385,0.089920336479474 c-0.132329889572197,0.02912912308490002 -0.2435502984322586,0.07725550035560441 -0.37588018800445594,0.11145055789005218 c-0.37779801249100914,0.09371978731663494 -0.7402534290895892,0.2051614886779292 -1.0988731967150622,0.32547743185469 c-0.31067415546163385,0.1025851726033435 -0.6194304864367146,0.20642797229031598 -0.9090219839063046,0.32674391546707704 c-0.3087563309750803,0.12664836123869566 -0.5964300039581175,0.2697521529096639 -0.8802546166080009,0.4179307355589376 c-0.29149591059609814,0.149436209732903 -0.5810874080656886,0.2938153415450161 -0.8457337758500365,0.4597158382389491 c-0.2531528322250724,0.15830159501961155 -0.4832783592514559,0.330543366304238 -0.7134038862778396,0.5040427646724931 c-0.23971464945915152,0.18109830004257693 -0.4794427102783487,0.3596724893891379 -0.6923078169257499,0.5547021091679709 c-0.21287851800744723,0.19376313616644666 -0.3931406083834379,0.3989246248443759 -0.5753339346060274,0.6053614536634497 c-0.17643985276292926,0.20009555422838132 -0.3509484696792594,0.39893348137313367 -0.5005387796304378,0.6091609045006102 c-0.15150813443773276,0.21655984118941177 -0.2703998412440089,0.4419939241942903 -0.3931406083834379,0.6724850851199575 c-0.12082294265287542,0.22795819370089446 -0.2358924118460902,0.4533834201770146 -0.32409892686750935,0.6902158556933757 c-0.08054862843525033,0.21782632480179875 -0.12849424059908987,0.4419939241942903 -0.17834426588943716,0.6648861834456362 c-0.061370383569714554,0.26595270207250316 -0.10931599573355402,0.5293724369202323 -0.12274076713942916,0.7991245898298954 c-0.0038356489731071557,0.089920336479474 -0.04027431421762517,0.17476588198064208 -0.04027431421762517,0.26595270207250316 v73.87419281069258 c0,4.0804862077081605 5.009196622557394,7.388435124917794 11.186321534705826,7.388435124917794 c6.179042736634984,0 11.186321534705826,-3.3079489172096337 11.186321534705826,-7.388435124917794 v-28.348074670265074 l11.761642057951805,23.29876392519592 c0.1265764161125362,0.2456889642743117 0.29533155956920565,0.472380674362819 0.4545109919531524,0.7041383189008737 c0.0709595060024824,0.10511813982811741 0.12465859162598261,0.21402687396463768 0.20519380870118706,0.31661204656798136 c0.3087563309750803,0.4001999649855205 0.6635538609874922,0.7725284339697698 1.0624479428305902,1.122069054459811 c0.06520603254282172,0.05572527894502615 0.14191901200496485,0.1025851726033435 0.2090294576742943,0.1557686277948377 c0.3490306451927054,0.2862164398706944 0.7249108331971608,0.5534356255555845 1.1295717998599655,0.796591622605122 c0.16301508135705425,0.09878572176618278 0.3394415227599376,0.18869720171689877 0.51204572654976,0.2798840218087599 c0.3547841186523663,0.19249665255405954 0.7229930087106076,0.36600490745107256 1.1122979681209375,0.5268394696954581 c0.1917824486553579,0.08105495119276518 0.3854693104372236,0.15830159501961155 0.5887587060119026,0.2317576445380552 c0.510127902063206,0.1836312672673509 1.0375162245053937,0.33940875159094647 1.5821515559665182,0.4698477071380448 c0.0767129794621432,0.017730770573417397 0.14575466097807188,0.04939286088309137 0.22245422908016935,0.06712363145650879 c0.021096069352089367,0.0037994508371608717 0.0383564897310716,0.0037994508371608717 0.05753473459660739,0.008865385286708702 c0.47368923681868785,0.1025851726033435 0.9608032450432505,0.1760323655930292 1.4517394908808745,0.23682357898760287 c0.09013775086801834,0.01013186889909565 0.18219332622258988,0.03292857392206087 0.2723176657305625,0.041793959208769625 c0.5753339346060274,0.06079121339457394 1.164079229257884,0.09371978731663494 1.7566735842428938,0.09371978731663494 c0.5906765304984568,0 1.1755861761772055,-0.03039560669728698 1.7547557597563401,-0.09371978731663494 c0.09013775086801834,-0.008865385286708702 0.18219332622258988,-0.03166209030967393 0.2742354902171159,-0.041793959208769625 c0.49286748168422434,-0.06079121339457394 0.9799814899087865,-0.13423840638425943 1.4498350777543676,-0.23682357898760287 c0.021096069352089367,-0.0050659344495478315 0.0383564897310716,-0.0050659344495478315 0.05753473459660739,-0.008865385286708702 c0.08054862843525033,-0.017730770573417397 0.14575466097807188,-0.04939286088309137 0.22437205356672293,-0.06712363145650879 c0.5465665673077235,-0.13044781207585654 1.0739548897499118,-0.2862164398706944 1.5821515559665182,-0.4698477071380448 c0.20327598421463342,-0.07345604951844349 0.3912227838968843,-0.1507026933452899 0.5887587060119026,-0.2317576445380552 c0.3873871349237773,-0.16083456224438547 0.7575138494685721,-0.33687578436617277 1.1122979681209375,-0.5268394696954581 c0.17260420378982214,-0.09371978731663494 0.347112820706152,-0.18109830004257693 0.510127902063206,-0.2798840218087599 c0.4065653797893129,-0.24442248066192487 0.7786099188206607,-0.5103751827344275 1.1257227395268126,-0.7940586553803478 c0.06904168151592888,-0.05572527894502615 0.14575466097807188,-0.1025851726033435 0.21287851800744723,-0.15830159501961155 c0.3988940818430985,-0.34700765326526856 0.7555960249820176,-0.7218779460030492 1.0624479428305902,-1.1195360872350377 c0.08054862843525033,-0.10511813982811741 0.13616553854530414,-0.21402687396463768 0.20711163318774078,-0.3216779810175289 c0.15726160789739368,-0.22922467731328125 0.3279345758406163,-0.45591638740178825 0.4487575184934917,-0.6990723844513259 l11.761642057951805,-23.29876392519592 v28.348074670265074 c0,4.0804862077081605 5.009196622557394,7.387168641305408 11.186321534705826,7.387168641305408 c6.179042736634984,0 11.188239359192378,-3.3066824335972473 11.188239359192378,-7.387168641305408 v-73.87419281069258 c0.001917824486553581,-0.09118682009186091 -0.03452084075796443,-0.1760323655930292 -0.0383564897310716,-0.26595270207250316 z" data-paper-data="{&quot;glyphName&quot;:&quot;M&quot;,&quot;glyphIndex&quot;:3,&quot;firstGlyphOfWord&quot;:true,&quot;word&quot;:2,&quot;line&quot;:2,&quot;firstGlyphOfSecondLine&quot;:true}" fill-rule="nonzero" id="svg_7"/><path d="M460.2107956449924,210.3190294010758 l-33.56086901724398,-73.87419281069258 c-0.00575347345966074,-0.011398352511482608 -0.015342595892428642,-0.02026373779819132 -0.019178244865535803,-0.02912912308490002 c-0.18986462416880429,-0.4090564937434712 -0.4468396940069383,-0.8016575570546692 -0.7402534290895892,-1.1815937842419983 c-0.18602897519569717,-0.24062302982476366 -0.41040102876242024,-0.4597158382389491 -0.6290330202295281,-0.6813416138779088 c-0.22437205356672293,-0.2266917100885073 -0.42574362465484883,-0.46224880546372304 -0.6865543434660897,-0.6712097449788134 c-0.23971464945915152,-0.19249665255405954 -0.5254704979556345,-0.35334007132720313 -0.7920346902265358,-0.528105953307845 c-0.24930377189191935,-0.16463401308154646 -0.4756070613052413,-0.3406752352033333 -0.7498425515223571,-0.4901114449362361 c-0.3490306451927054,-0.19249665255405954 -0.7402534290895892,-0.34194171881572033 -1.1238049150402591,-0.502776281060106 c-0.29341373508265206,-0.12538187762630867 -0.5810874080656886,-0.25202138233624655 -0.89559721250043,-0.3596724893891379 c-0.5849230570387959,-0.1962961033912205 -1.1909287720696344,-0.3685378746758468 -1.819961792299162,-0.49644386299817117 c-0.017260420378982205,-0.0012664836123869574 -0.030685191784857298,-0.008865385286708702 -0.046027787677285915,-0.012664836123869575 c-0.21478293113395502,-0.04306044282115652 -0.4276614491414024,-0.04939286088309137 -0.6405265557888038,-0.08232143480515222 c-0.4871140082245629,-0.07598901674321741 -0.9703923674760182,-0.15704396793598266 -1.4747667960795636,-0.18996368532928573 c-0.40081190632965247,-0.026596155860126102 -0.7977881636861966,-0.008865385286708702 -1.1966822455292951,-0.0075989016743217485 c-0.3279345758406163,0.0025329672247739136 -0.6520469140681713,-0.015197803348643487 -0.9838171388818935,0.0075989016743217485 c-0.5714982856329205,0.035461541146834794 -1.1295583884999199,0.12031594317676082 -1.6799606047807512,0.21402687396463768 c-0.15342595892428634,0.024063188635352197 -0.3049206820019734,0.02912912308490002 -0.4545109919531524,0.05825824616980004 c-0.013424771405875044,0.0025329672247739136 -0.023013893838642947,0.0063324180619347935 -0.03260301627141088,0.008865385286708702 c-0.7134038862778396,0.14311264819972616 -1.403807290077081,0.32801039907946417 -2.055840792785206,0.5597680436175192 c-0.06520603254282172,0.022796705022965238 -0.11890511816632195,0.05825824616980004 -0.18409773934909773,0.08104609466400728 c-0.5638269876867062,0.21149390673986393 -1.1122979681209375,0.44705100211507975 -1.618590221211036,0.7193361222495174 c-0.23971464945915152,0.12918132846346958 -0.43341492260106307,0.2874829234830815 -0.6558691516812326,0.4280626044580334 c-0.3010850330288662,0.19249665255405954 -0.6156082488236527,0.37360380912539415 -0.884090265581108,0.5876306830900322 c-0.2435502984322586,0.1962961033912205 -0.4295792736279561,0.4179307355589376 -0.638622142662296,0.6281581586864144 c-0.2358790004860442,0.23682357898760287 -0.4756070613052413,0.4711141907504318 -0.6769652210333212,0.7294679911486127 c-0.28957808610954466,0.3799362271873292 -0.5465665673077235,0.7687289831326086 -0.7364177801164821,1.1777943334048373 c-0.0038356489731071557,0.01013186889909565 -0.013424771405875044,0.018997254185804377 -0.021096069352089367,0.03039560669728698 l-33.555115543784325,73.87672577791734 c-1.7758518291084302,3.908244436423536 1.5821515559665182,8.026725152503305 7.500370162430216,9.199444694929836 c1.0720236539033123,0.21149390673986393 2.1536498415994387,0.3140790793432072 3.2180021975565363,0.3140790793432072 c4.813591936288976,0 9.25704374667311,-2.0681057433265932 10.710714473400584,-5.268403553483337 l7.676810015193144,-16.895626481128904 h30.33711334622779 l7.676810015193144,16.895626481128904 c1.4536707267274744,3.2003066666855005 5.897122537111608,5.268403553483337 10.710714473400584,5.268403553483337 c1.064365767317144,0 2.1459785436532237,-0.1025851726033435 3.2180021975565363,-0.3140790793432072 c5.922054255436805,-1.1727283989552895 9.276221991538646,-5.291200258506301 7.504205811403324,-9.199444694929836 zM407.47612092238785,182.8929193745134 l8.45733775850036,-18.615458087577842 l8.459255582986913,18.615458087577842 z" data-paper-data="{&quot;glyphName&quot;:&quot;A&quot;,&quot;glyphIndex&quot;:4,&quot;word&quot;:2,&quot;line&quot;:2}" fill-rule="nonzero" id="svg_8"/><path d="M517.9719274105335,175.50575073320795 l25.467904499828755,-33.634208994321824 c2.7635046169634307,-3.648624152412967 0.5235526734690814,-8.086241025756733 -5.005360973584287,-9.911190772033791 c-5.525077998080261,-1.824949746277056 -12.244920417203263,-0.3457411696528816 -15.008425034166693,3.3054159499848597 l-17.95986303945233,23.720494111592018 l-17.963698688425435,-23.72302707881679 c-2.761573381116831,-3.6511571196377406 -9.489100509546093,-5.129099212649529 -15.008425034166693,-3.3054159499848597 c-5.525077998080261,1.824949746277056 -7.766947766061164,6.262566619620823 -5.003443149097733,9.911190772033791 l25.464068850855654,33.634208994321824 l-25.464068850855654,33.634208994321824 c-2.7635046169634307,3.6498906360253542 -0.5254704979556345,8.087507509369122 5.003443149097733,9.911190772033791 c1.607083274291715,0.5293724369202323 3.311975597397661,0.7813938192564786 4.9957718511515194,0.7813938192564786 c4.102092463137644,0 8.054608027684155,-1.4956728635852061 10.012653183015173,-4.084276802016564 l17.95986303945233,-23.720494111592018 l17.96178086393888,23.720494111592018 c1.9599495684575272,2.5886127949601163 5.910547308517484,4.084276802016564 10.012653183015173,4.084276802016564 c1.6799606047807512,0 3.3886885768598054,-0.2494884151114726 4.9957718511515194,-0.7813938192564786 c5.525077998080261,-1.8236744061359111 7.766947766061164,-6.261300136008436 5.003443149097733,-9.911190772033791 z" data-paper-data="{&quot;glyphName&quot;:&quot;X&quot;,&quot;glyphIndex&quot;:5,&quot;lastGlyphOfWord&quot;:true,&quot;word&quot;:2,&quot;line&quot;:2,&quot;lastGlyphOfSecondLine&quot;:true}" fill-rule="nonzero" id="svg_9"/><g data-paper-data="{&quot;fillRule&quot;:&quot;evenodd&quot;,&quot;isIcon&quot;:&quot;true&quot;,&quot;iconType&quot;:&quot;icon&quot;,&quot;rawIconId&quot;:&quot;345852&quot;,&quot;selectedEffects&quot;:{&quot;container&quot;:&quot;&quot;,&quot;transformation&quot;:&quot;&quot;,&quot;pattern&quot;:&quot;&quot;},&quot;bounds&quot;:{&quot;x&quot;:136.38424062487547,&quot;y&quot;:140.09373424487768,&quot;width&quot;:62.207263244434074,&quot;height&quot;:75.65503817050873},&quot;iconStyle&quot;:&quot;icon-in-text&quot;}" fill-rule="evenodd" id="svg_10"><path d="M172.8183588821169,76.57475532580875 v-1.0152858872251993 c0.10883318677190416,-0.8083973754394702 0.4791074262772028,-1.609789236631401 1.1222760199950346,-2.3477772084451622 c1.9607810727803687,-2.249850569968501 5.9675590000723036,-3.347635022574011 9.764274794966415,-2.6752739288566647 c3.7967157948941126,0.6723610937173465 6.434086570626518,2.9468239571041925 6.427085840682596,5.542663679530796 v0.014914394428389054 c-0.006437452821998032,1.1645272533254274 -0.5544122129345341,2.2996774007607312 -1.5698533388044935,3.2517896683554683 l19.696647576747257,15.878595857738388 v22.26285118249345 c0,0.6837683027575874 -0.8393633798282673,1.23807186813145 -1.8748008435265577,1.23807186813145 c-1.0354240523382443,0 -1.8748008435265577,-0.5542947088451052 -1.8748008435265577,-1.23807186813145 v-21.375320722601696 l-18.680187187513813,-15.095483871902868 c-3.3953137887224445,1.3080295887905031 -7.698254779906426,0.9447347791393634 -10.485953490392534,-0.8853694668748199 c-1.4903239737327256,-0.9784515841208822 -2.348382789464879,-2.2453071707156718 -2.5246751172673036,-3.556312553168846 zM225.3050575574741,118.72530495195969 h-0.41403550733483985 c-0.9379636988852038,-0.06801814086106175 -1.667783089859138,-0.5930065960461082 -1.667783089859138,-1.2306146709172554 v-39.5286805657047 c-0.0037283580927405294,-0.044752039813925185 -0.0037283580927405294,-0.08949522309909233 0,-0.13424726291301742 c-4.438181145886125,-0.6415580866971942 -7.371782042310806,-3.4384764380443116 -6.720915327926669,-6.407751695549909 c0.6509874166245511,-2.969346109735661 4.665195237381877,-5.1020336607652315 9.196773094627153,-4.886040637416328 c4.531470566364912,0.2159930233489029 8.040391986035576,2.7072637107303827 8.038809445550168,5.707572245003839 c0.007564007065847684,2.679303649441532 -2.8054151171066466,5.002096590260516 -6.765078936557584,5.586220087962398 c0.0037283580927405294,0.044752039813925185 0.0037283580927405294,0.08949522309909233 0,0.13424726291301742 v39.5286805657047 c0,0.6376080748711481 -0.7298193909739341,1.162587673527436 -1.667783089859138,1.2306146709172554 zM234.27720378269368,118.72530495195969 h0.005646182579294106 c0.3227846135830179,-0.00030112197777032554 0.6453278226852108,-0.055636713657446615 0.934570624793609,-0.1658739271076595 c0.5800547333421596,-0.22113866655727227 0.937400421763279,-0.6298497556791837 0.937400421763279,-1.0721979410237907 v-12.045065097916925 l13.315562701021856,-8.890227849874744 v-13.007176386479388 c3.8192737024911985,-0.5563139974019179 6.579291365842711,-2.7301666940984437 6.776371301716172,-5.2857357802626455 v-0.30795036144270566 c0.0062094597012189315,-3.00007826452575 -3.498299622514366,-5.4935896536829905 -8.02908620951694,-5.712939301431158 c-4.53079999836262,-0.21934964774816623 -8.548508184091906,1.9100521311122045 -9.204913790174972,4.878583440202133 c-0.6564056060830656,2.968602161319993 2.2714418168819566,5.767752357914115 6.708040422282672,6.413118751977227 v12.000313058103 l-13.315562701021856,8.897685047088938 v13.059385623507508 c0,0.4423481853446083 0.3573456884211196,0.8510592744665191 0.937400421763279,1.0721979410237907 c0.2891220998679866,0.11022835692145506 0.6117994225706377,0.16557280512988914 0.934570624793609,0.1658739271076595 zM213.53936526878846,57.08492758007348 c0.2698097414019922,2.9084397614672333 -2.8181827318702757,5.484963394672747 -7.16668211312994,5.979520817045475 v19.53313617136167 l11.045475431504528,9.419759704312618 v25.454983273135365 c0,0.6837683027575874 -0.8393633798282673,1.23807186813145 -1.8748008435265577,1.23807186813145 c-1.0354240523382443,0 -1.8748008435265577,-0.5542947088451052 -1.8748008435265577,-1.23807186813145 v-24.61220485305753 l-11.045475431504528,-9.412302507098424 v-20.502713513667082 c-4.256349926384772,-0.7684190046260807 -6.9549301493663425,-3.5290964402956635 -6.262716211960914,-6.406919181846661 c0.6920932351650168,-2.8778404546085152 4.553036033318605,-4.950533879831727 8.960505164699779,-4.81027303389206 c4.407348429140763,0.140269702468424 7.948685106042195,2.4485467926531257 8.218494847444186,5.357004267177875 zM204.91576687979997,54.15184009907287 c-2.7445409538586274,0 -4.969338060501189,1.4692361252427224 -4.969338060501189,3.281627313741004 c0.0062094597012189315,1.8107084480342714 2.2273854991314077,3.2775267409260733 4.969338060501189,3.281627313741004 c2.7445409538586274,0 4.969338060501189,-1.4692006991276911 4.969338060501189,-3.281627313741004 c0,-1.8123911884982817 -2.224797106642563,-3.281627313741004 -4.969338060501189,-3.281627313741004 zM220.15129988498273,72.24554236446232 c0,1.8124266146133141 2.224797106642563,3.281627313741004 4.969338060501189,3.281627313741004 c2.7419391500097365,-0.004100572814931197 4.963128600799972,-1.4709100091779754 4.969338060501189,-3.281627313741004 c0,-1.8124266146133141 -2.224797106642563,-3.281627313741004 -4.969338060501189,-3.281627313741004 c-2.7445409538586274,0 -4.969338060501189,1.4692006991276911 -4.969338060501189,3.281627313741004 zM181.46953102735964,72.79744581054278 c-2.744487308418444,0 -4.969338060501189,1.4692006991276911 -4.969338060501189,3.281627313741004 l0.011292365158588204,0.014914394428389054 c0.01853449958333597,1.8019847672076894 2.229303323617961,3.2585826259128163 4.9580456953426015,3.2667129193126154 c2.7445409538586274,0 4.969338060501189,-1.4692006991276911 4.969338060501189,-3.281627313741004 c0,-1.8124266146133141 -2.224797106642563,-3.281627313741004 -4.969338060501189,-3.281627313741004 zM247.50524394805646,81.23272263465036 h0.18070466525750298 l0.011292365158588204,0.007457197214194533 c2.7236460549072268,0.0709230822936696 5.025357311412619,-1.3202604550052328 5.159068571069536,-3.1180649406391696 c0.13372467101696325,-1.7978841943927582 -1.9504677369051255,-3.3313035835443503 -4.67151198796346,-3.436979684684218 c-2.721057662418381,-0.10568495766862626 -5.063083467221536,1.2558203517623834 -5.2495416059387,3.051543553138202 c-0.18635084783679715,1.7957940536058827 1.852537985850481,3.3556147549849245 4.5699745810564885,3.4960527314997494 z" data-paper-data="{&quot;isPathIcon&quot;:true}" id="svg_11"/></g></g></g></g></g></svg>